<svg version="1" xmlns="http://www.w3.org/2000/svg" width="1904" height="1904" viewBox="0 0 1428.000000 1428.000000"><path d="M430 341.1c0 .4-.8.7-1.7.7-1 0-3.1.5-4.8 1.2-1.6.7-3.7 1.4-4.5 1.6-.8.2-1.6.8-1.8 1.3-.2.6-1.2 1.1-2.1 1.1-1 0-3 .9-4.4 2-1.4 1.1-2.8 2-3.2 2-1 0-7.7 5.1-11 8.5-1.6 1.6-3.3 2.9-3.7 2.8-.3-.1-1.9 1.4-3.5 3.4-1.5 1.9-4.6 5.3-6.7 7.4-2.2 2.2-3.7 3.9-3.4 3.9.3 0-1.1 1.8-3.1 3.9-5.3 5.8-9 10.3-13.6 16.7-1.1 1.5-2.7 3.4-3.5 4.2-.8.9-1.4 1.7-1.3 1.9.3.3-9.1 15.2-10.9 17.3-.7.8-1.2 1.6-1.1 1.7.4.7-1 4.3-1.7 4.3-.4 0-1 .8-1.3 1.7-.3 1-2.2 4.5-4.1 7.8-2 3.3-4.6 8-5.8 10.5-1.3 2.5-2.5 4.7-2.8 5-.3.3-1.9 3.2-3.5 6.5-1.7 3.3-3.9 7.3-5 9-1.1 1.6-2.1 3.7-2.3 4.5-.2.8-.7 1.7-1 2-.4.3-.8 1.2-1 2-.2.8-.8 1.7-1.3 1.8-.5.2-.7.7-.4 1.1.2.5-.7 2.3-2 4.1-1.4 1.9-2.5 4-2.5 4.7 0 .7-.5 1.3-1.2 1.3-.6 0-.9.3-.5.6.6.7-3 8.5-4.3 9.4-.4.3-1.8 2.7-3 5.5-1.2 2.7-3.1 6.2-4.2 7.7-1.1 1.6-1.6 2.8-1.1 2.8.4 0 .3.4-.2.8-.6.4-2.3 3.3-3.8 6.5s-3.2 6.4-3.7 7c-.5.7-3.5 6.1-6.6 12.2-3.1 6-6.7 12.9-8 15.2-1.3 2.4-2 4.3-1.6 4.3.4 0 .2.4-.4.8-1.1.6-3.6 5.2-13.6 24.2-2.1 4.1-5 9.4-6.3 11.7-1.3 2.4-2.1 4.3-1.8 4.3.4 0-.1.8-1 1.7-.8 1-1.6 2.2-1.6 2.8-.1.5-.6 1.7-1.3 2.5-1.4 1.6-3.5 6-3.6 7.4 0 .5-.4 1.2-.9 1.5-.5.3-1.4 1.7-2 3.1-.7 1.4-3 5.8-5.3 9.9-2.2 4-3.7 7.7-3.4 8.2.3.5-.2 1.2-1 1.5-1.3.5-8 13.2-7.6 14.3.1.2-.4.7-1.1 1.2-.7.4-1.4 1.5-1.5 2.4-.1.9-.9 2.4-1.6 3.3-1.4 1.7-3.3 5.7-3.7 7.7-.1.5-.8 1.7-1.5 2.5s-3.3 5.3-5.7 10c-2.4 4.7-4.6 8.7-5 9-.3.3-1.2 2.2-2 4.2-.7 2.1-1.7 3.8-2.2 3.8-.4 0-.6.4-.3.9s-.1 1.4-.9 2.1c-.8.7-1.5 1.9-1.5 2.6 0 .8-.5 1.4-1.1 1.4-.5 0-.7.4-.4 1 .3.5.1 1-.4 1-.6 0-1.1.6-1.1 1.2 0 1.4-6.1 14-7.1 14.8-.4.3-2.2 3.6-4.1 7.5-4.2 8.5-6 11.8-7.1 12.6-.5.3-.9 1-.9 1.5-.1 1.7-1.1 3.9-2.6 5.6-.8 1-1.2 1.8-.7 1.8.4 0 .3.6-.3 1.2-.6.7-3.7 6.5-7 12.8-3.2 6.3-7.4 14.2-9.3 17.5-1.8 3.3-3.4 6.5-3.5 7.1-.1.6-1.3 2.8-2.6 5-1.4 2.1-3.3 5.8-4.3 8.1-1 2.4-2.3 4.3-2.9 4.3-.5 0-.7.3-.3.6.3.3-.4 2.2-1.5 4.2-1.2 2.1-4.1 7.5-6.6 12.2-11.3 21.6-15.8 30.1-19.8 38-2.4 4.7-4.7 9-5.1 9.5-2.1 2.8-4.2 7.3-3.6 7.9.3.3.2.6-.4.6-.9 0-2.3 2.9-3.5 7-.1.3-.6 1-1.2 1.7-2.4 2.7-3.2 3.8-3.3 4.6-.3 2.1-8.7 17.7-9.6 17.7-.6 0-.8.3-.4.6.6.7-8.8 19.9-11.1 22.6-.8 1-1.1 1.8-.6 1.8.5 0 .4.4-.1.8-.6.4-3.2 5-5.8 10.2-2.6 5.2-7.4 14.5-10.6 20.7-3.2 6.2-5.6 11.5-5.3 11.8.3.3 0 .5-.7.5-1 0-2.8 3.2-2.9 5.4 0 .5-.4 1.2-.9 1.5-.4.3-2.4 3.7-4.3 7.6-1.9 3.8-4.8 9.2-6.4 12-1.5 2.7-2.9 5.5-3 6.1-.1.7-.8 1.9-1.5 2.8-.7.9-1 1.6-.5 1.6s.4.4-.2.8c-.5.4-2 2.8-3.2 5.4-1.2 2.5-2.6 4.9-3.2 5.3-.6.3-.8 1.1-.5 1.6.4.5.1.9-.4.9-.6 0-1.1.5-1.1 1 0 1.2-1.9 5.1-7.4 15.5-5.8 10.7-11.6 22.4-11.5 23.1 0 .4-.4 1-1.1 1.4-.6.4-1.3 1.3-1.4 2.1-.2.8-.6 2.2-1 3.1-.9 2.1 0 3.8 2 3.8.8 0 1.4.5 1.4 1.1 0 .5.4.8.9.4.6-.3 1.3.1 1.8.8.4.7 2.2 1.9 4 2.6 2.8 1.1 3.5 1.1 4.8-.2.8-.9 1.5-1.9 1.5-2.4 0-.4.9-1.9 2-3.3 3.7-4.6 22.5-34.4 22.2-35.2-.1-.4.5-.8 1.3-.8s1.4-.3 1.3-.8c-.3-.8 5.1-9.4 6.4-10.3.5-.3.8-.8.7-1-.2-.2 1.1-2.5 2.9-5.1 1.8-2.6 3.2-5.1 3.2-5.7 0-.6.5-1.1 1-1.1.6 0 1-.7 1-1.5s.5-1.5 1-1.5c.6 0 1-.7 1-1.5s.5-1.5 1-1.5c.6 0 1-.7 1-1.5s.3-1.5.8-1.5c.7 0 2.5-3 3.8-6.3.3-.9 1-1.7 1.5-1.7s.9-.7.9-1.5.4-1.5 1-1.5c.5 0 1.2-1.1 1.6-2.4.3-1.4 1.2-2.7 2.1-3 .8-.3 1.1-1 .8-1.6-.3-.5-.2-1 .2-1 .5 0 2.6-2.9 4.6-6.4 2.1-3.5 4.4-7 5.2-7.6.8-.7 1.5-1.9 1.5-2.6 0-.8.8-2.2 1.8-3.2.9-1 2.6-3.4 3.7-5.5 1.1-2 2.3-3.7 2.6-3.7.4 0 1.2-1.4 1.8-3 .5-1.7 1.5-3 2-3 .6 0 1.1-.7 1.1-1.5 0-.9 1.1-2.8 2.5-4.3s2.5-3 2.5-3.5c0-.4 1.8-3.5 4-6.7s4-6.4 4-6.9c0-.6.3-1.1.8-1.1.4 0 2.3-2.6 4.2-5.8 1.9-3.1 3.8-6.2 4.2-6.7.5-.6 2.9-4.2 5.3-8 2.4-3.9 4.7-7.5 5.2-8 .4-.6 1.4-2.2 2.2-3.8.8-1.5 1.8-2.7 2.3-2.7.4 0 .8-.9.8-2s.3-2 .8-2c.4 0 1.6-1.6 2.6-3.5 1.1-1.9 2.3-3.5 2.8-3.5s.7-.4.4-.8c-.3-.5.4-1.6 1.5-2.5 1.1-1 1.8-2.1 1.5-2.6-.3-.5.3-1.6 1.4-2.6 1.1-1 2-2.4 2-3.2 0-.7.5-1.3 1-1.3.6 0 1-.5 1-1.2 0-.6 1.1-2.6 2.5-4.4 1.4-1.8 2.5-3.7 2.5-4.3 0-.6.4-1.1.8-1.1.5 0 1.7-1.7 2.8-3.7 1-2.1 2.7-4.6 3.6-5.7 1-1.1 2.4-3.2 3-4.8.7-1.5 1.6-2.8 2-2.8.5 0 .8-.5.8-1.2 0-.6 1.1-2.6 2.5-4.4 1.4-1.8 2.5-3.5 2.5-3.9 0-.3.5-1.1 1-1.8 2-2.3 10-14.9 10-15.6 0-.4.8-1.6 1.8-2.7.9-1 2.4-3.3 3.2-4.9.8-1.7 2.3-3.9 3.2-4.9 1-1.1 2.4-3.2 3-4.8.7-1.5 1.6-2.8 2-2.8.5 0 .8-.4.8-1 0-.5 1.6-3.2 3.5-5.9 1.9-2.6 3.5-5.3 3.5-6 0-.6.3-1.1.8-1.1.4 0 1.9-2.1 3.5-4.8 3.8-6.6 4.6-7.8 9.5-14.9 2.3-3.5 4.2-6.7 4.2-7.3 0-.5.4-1 .9-1s1.1-.8 1.4-1.8c.8-2.4 3.8-7.2 6.5-10.1 1.2-1.4 2.2-3.1 2.2-3.8 0-.7.5-1.3 1-1.3.6 0 1-.7 1-1.5s.3-1.5.8-1.5c.4 0 1.6-1.8 2.6-4 1.1-2.2 2.3-4 2.8-4s.6-.5.3-1c-.3-.6-.3-1 .2-1 .4 0 2.1-2.4 3.7-5.3 1.6-2.8 3.5-5.6 4.3-6 .7-.4 1.3-1.3 1.3-1.8 0-.6 2.6-5 5.7-9.7 3.1-4.8 5.6-8.8 5.5-9-.1-.1.2-.8.8-1.5.6-.6 3.1-4.4 5.5-8.2 2.4-3.9 4.9-7.5 5.4-8.2.6-.7 1.1-1.5 1.1-1.8 0-.7 5.2-8.8 6.1-9.5.3-.3.9-1.5 1.3-2.8.4-1.2 1.2-2.2 1.7-2.2s.9-.7.9-1.5.5-1.5 1-1.5c.6 0 1-.7 1-1.5s.5-1.5 1-1.5c.6 0 1-.5 1-1 0-1.2 5.2-9.4 6.3-9.8.4-.2.7-.8.7-1.3 0-.8 12.8-21.2 14.7-23.4.5-.6 1.2-1.8 1.6-2.8.3-.9 2.5-4.4 4.7-7.7 2.2-3.2 4-6.2 4-6.5 0-.4.6-1.3 1.3-2 3-3.4 3.5-4.3 3-4.9-.4-.3-.2-.6.4-.6.6 0 1.3-.8 1.7-1.8.5-1.7 2.6-5.3 3.6-6.2 1.4-1.3 10.5-16.6 10.2-17.3-.1-.4.2-.7.8-.7.5 0 2.4-2.4 4.1-5.3 6.4-10.9 9.2-15.2 10.3-15.9.6-.4.7-.8.1-.8s-.6-.3 0-.8c.6-.4 2.3-2.8 3.8-5.4 1.5-2.6 3.4-5.4 4.3-6.2.8-.9 1.3-1.6.9-1.6-.8 0 5.6-9.4 6.7-9.8.4-.2.8-1.2.8-2.3 0-1 .4-1.9.8-1.9.5 0 1.5-1.2 2.3-2.8.8-1.5 1.7-3.2 2.2-3.7 2.8-3.7 5.4-8.4 4.9-8.9-.3-.3-.1-.6.5-.6 1.1 0 6.5-8.3 6.2-9.6 0-.4.3-1 .8-1.3.5-.3 4-5.3 7.8-11.1s7.3-11 7.7-11.5c3-3.8 4.8-5.8 4.2-4.6-.4.7-.8 2.8-1 4.5-.2 1.7-.5 4.2-.8 5.6-.3 1.4-.7 4.1-1.1 6-.3 1.9-.8 4.6-1.2 6-.7 3-.9 4.1-1.9 10-.4 2.5-.8 4.9-.9 5.5-.1.5-.5 3.9-.9 7.4-.4 3.6-.8 6.7-1 7-.2.3-.7 3.1-1 6.1-.4 3-1.3 8.9-2 13s-1.3 8.7-1.2 10.2c.1 1.6-.1 2.8-.5 2.8s-.7 1.5-.8 3.2c-.1 3.8-.8 10.3-1.1 10.3-.2 0-.4 1.3-.5 3-.2 1.6-.4 3-.5 3-.1 0-.4 1.6-.6 3.5-.1 1.9-.5 4.8-.8 6.5-.3 1.6-.8 4.8-1.1 7-.3 2.2-.8 5.3-1 7-.8 5-1.5 10.9-1.8 13.5-.1 1.4-.5 2.9-.8 3.5-.3.5-.5 2.2-.4 3.7.1 1.6-.1 2.8-.5 2.8-.3 0-.5 1.3-.4 3 .1 1.6-.1 3-.4 3-.4 0-.8 1.2-.8 2.7-.3 6.9-.8 10.4-1.4 10.8-.4.3-.6 1.7-.4 3.2.1 1.5 0 3.1-.3 3.7-.4.5-.7 2.1-.9 3.5-.9 10.4-1.6 16.6-1.9 17.2-.5.7-3.7 21.8-5 32.9-.2 1.9-.6 4.4-.8 5.5-.9 4.2-2.9 18.3-3.3 23-.1 1.6-.3 3-.4 3-.2 0-.4 1.3-.5 3-.2 1.6-.4 3-.5 3-.2 0-.4 1.6-.5 3.5-.2 1.9-.4 3.5-.5 3.5-.2 0-.9 4.7-1.4 10-.2 2.2-.5 4-.6 4-.3 0-.7 2.7-1.4 9-.2 1.6-.4 3.2-.5 3.5-.2.3-.4 1.8-.6 3.5-.6 4.4-2 14.6-3.1 21-.9 5.4-1.4 9.9-2 16-.3 3.3-.9 6.2-1.2 6.5-.4.3-.8 3-1 6-.1 3-.5 6.2-.9 7-.3.8-.7 2.8-.8 4.5-.1 1.6-.8 6.4-1.4 10.5-1.9 12.4-2.4 16.3-2.5 20.2 0 2.1-.4 3.8-.7 3.8-.5 0-2.2 10.8-2.4 16 0 .8-.4 2-.7 2.6-.7 1-.9 3.8-1 12.4-.1 4.6 2.6 10.6 8.1 18 3.2 4.3 12.8 14 13.8 14 .5 0 2.2 1.2 3.8 2.6 3.2 2.7 9.4 5.9 10.9 5.5.5-.1 1.2.3 1.6.8.3.6 1.7 1.3 3 1.5 1.4.2 2.7.5 3 .6.3.2.9.2 1.4.1.4-.1 1.3.2 2 .7.6.4 2.1.7 3.4.6 1.2 0 2.2.2 2.2.5 0 .8 16.2.5 21-.4 1.9-.4 4.2-.7 5-.9.9-.1 2.1-.5 2.8-1 .6-.4 1.2-.5 1.2-.1 0 .8 8.4-3.6 9.2-4.9.4-.6.8-.7.8-.3 0 .4 1 .2 2.3-.5 1.2-.6 2.7-1.3 3.3-1.4.6-.1 3.2-1.8 5.8-3.8 2.6-2 5.2-3.6 5.7-3.6s.9-.6.9-1.3c0-.8 1.1-1.9 2.4-2.5 1.4-.6 3.7-3.3 5.2-5.9 1.6-2.6 3.2-5.1 3.7-5.4.5-.3.7-.8.6-1-.5-.7 2.5-6.9 3.3-6.9.5 0 .8-.7.8-1.5 0-.9 1-3.2 2.3-5.3 1.3-2 2.7-4.4 3-5.2.4-.8 1.8-3.5 3.2-5.9 1.4-2.4 2.5-5 2.5-5.8 0-.7.4-1.3.9-1.3s2.3-2.8 4-6.3c1.6-3.4 4.9-9.6 7.2-13.7s5.3-9.8 6.7-12.5c1.4-2.8 3.1-5.7 3.7-6.5.6-.8 2-3.5 3-6 1.1-2.5 2.2-4.7 2.6-5 1.1-.9 6.9-12.4 6.9-13.8 0-.6.7-1.2 1.5-1.2s1.4-.3 1.3-.8c-.4-1.1 2.9-8.8 4.4-10.3.8-.8 2.9-4.7 4.8-8.7 1.8-3.9 3.7-7.2 4.2-7.2.4 0 .8-.8.8-1.9 0-1 .7-2.4 1.5-3.1.8-.7 1.5-1.8 1.5-2.6 0-.7.7-2 1.6-2.8.8-.9 1.3-1.6 1.1-1.6-.3 0 1.4-3.5 3.7-7.8 2.3-4.2 4.7-8.6 5.3-9.7.5-1.1 1.8-3.4 2.7-5 1-1.7 2.3-4.2 2.9-5.8.6-1.5 1.4-2.7 1.8-2.7.6 0 2-4.3 1.9-5.6-.1-.3.7-1.3 1.8-2.2 1-.9 2.4-3.4 3.1-5.4.7-2 1.6-3.8 2-4 .4-.2 2.2-3.3 4-7.1 1.8-3.7 3.7-6.7 4.2-6.7s.9-.6.9-1.3c0-.7 1.3-3.7 3-6.7 1.6-3 3.5-6.6 4.2-8 .7-1.4 1.6-2.8 2.1-3.1.5-.3.9-1 .9-1.5.1-1.1 2.1-5.7 2.8-6.4.3-.3 1.9-3.2 3.6-6.5 4.9-9.6 10.6-19.9 11.6-21.3.6-.6.7-1.2.4-1.2-.4 0 0-.7.8-1.6.9-.8 1.4-2 1.1-2.5-.4-.5-.3-.9.2-.9.4 0 1.9-2.1 3.2-4.8 1.4-2.6 3.2-5.8 4.2-7.2.9-1.4 1.4-3.1 1.2-3.8-.3-.6 0-1.2.6-1.2.5 0 2.2-2.7 3.8-6 1.5-3.3 3.1-6 3.5-6 .4 0 .8-.7.8-1.6 0-.8.5-1.2 1-.9.6.4 1.1 3 1.1 5.8-.1 2.9.2 7.7.5 10.7.6 6.3 1.3 15.2 2 26 .3 4.1.7 9.1.9 11 .2 1.9.4 5.6.6 8.2.2 2.7.7 4.8 1.1 4.8.5 0 .6.5.2 1.2-.9 1.5-1 6-.1 7.4.3.6.4 1.9.3 3-.2 1-.1 2.3.3 2.9.3.5.7 2.1.8 3.5.2 1.4.5 4.5.7 7 .2 2.5.5 4.5.6 4.5.1 0 .4 1.6.6 3.5.2 1.9.6 4.8.9 6.5.3 1.6.6 3.8.8 4.7.2 1 .6 2 .9 2.4.4.3.4 1.2.2 1.9-.3.7 0 1.6.5 2 .6.3.9 1.1.6 1.6-.4.5-.3 1.5.2 2.1.4.7.8 2.6.9 4.1.2 1.6.6 3.6 1 4.5.8 2 1 2.7 1.7 6.7.8 4.7 5.6 18 6.7 18.3.6.2.8.8.4 1.3-.7 1.1 4.4 14.4 9.9 25.9 2.2 4.7 4.1 8.7 4.1 9 .3 1.3 13.2 22.3 14.8 24 1 1.1 1.8 2.2 1.8 2.4 0 3.4 34.3 39.4 40.7 42.7 1.5.8 3.4 2 4.2 2.7 1.1 1.1 7.8 5.6 14.6 10 1.8 1.1 6.2 3.3 7.5 3.7 3.5 1.1 9 3.9 9 4.6 0 .5.9.9 1.9.9 1.1 0 2.6.6 3.3 1.2.7.7 2.1 1.4 3.1 1.5.9.2 2.5.4 3.5.5.9.2 1.9.6 2.2.9.7.8 12.6 4.6 17 5.4 5.8 1 7.4 1.4 10 2 9.6 2.4 29.8 3.3 48.5 2.1 8.9-.6 19-2 19-2.6 0-.2 2.1-.6 7-1.4 1.7-.3 4.1-.7 5.5-1 3.2-.5 12.9-3.4 15.5-4.6 1.1-.5 5.2-1.8 9-3.1 3.9-1.2 7.5-2.6 8.1-3 .6-.5 1.3-.7 1.6-.4.3.3 1.1-.1 1.8-1 .7-.8 2-1.5 2.9-1.5.9 0 2.6-.7 3.7-1.5 1.2-.8 2.4-1.1 2.8-.7.4.3 1 .2 1.4-.3.4-.6 2.5-1.9 4.7-3.1 3.8-2 9.3-5.1 17.6-9.8 5.1-2.9 12.1-7.6 13.7-9.3.7-.7 2-1.3 2.8-1.3.8 0 1.7-.7 2-1.5.4-.8 1.2-1.5 1.9-1.5s1.5-.7 1.9-1.5c.3-.8.9-1.4 1.3-1.3.5.2 1.5-.3 2.3-1 .8-.7 3-2.6 4.9-4.2 1.9-1.7 3.8-3 4.2-3 .4 0 2.1-1.4 3.7-3 1.7-1.7 3.3-3 3.7-3 .3 0 2-1.6 3.8-3.5 1.7-1.9 3.6-3.5 4-3.5.4 0 3-2.3 5.6-5 2.6-2.8 5-5 5.3-5 .3 0 5.1-4.4 10.6-9.8 9.6-9.4 20.7-20.2 60.5-58.7 36.2-35 121.7-121.2 121.7-122.6 0-.5.4-.9 1-.9.5 0 3.1-2.3 5.7-5.2 5.3-5.7 27.8-29 41.6-43.1 4.8-4.9 8.7-9.1 8.7-9.3 0-.3 3-3.6 6.8-7.4 3.7-3.9 10.1-10.7 14.2-15.2 4.1-4.4 10.2-10.8 13.5-14.2 3.3-3.3 6-6.4 6-6.7 0-.4 2-2.7 4.5-5.2s7.2-7.6 10.5-11.3c3.3-3.6 7.9-8.5 10.3-10.9 2.3-2.3 4.2-4.5 4.2-4.9 0-.3 1.7-2.4 3.8-4.5 2-2.1 5.7-6.2 8.2-9.1 2.5-2.9 6.1-6.9 8-8.9 1.9-2.1 5.3-5.9 7.5-8.5 2.2-2.5 5.6-6.4 7.5-8.5 1.9-2.1 5.4-6.1 7.7-8.7 2.4-2.7 5.9-6.7 7.9-8.9 1.9-2.2 4.7-5.6 6.2-7.5 1.5-1.9 3.6-4.4 4.7-5.5 1.1-1.2 3.8-4.3 6-6.9 2.2-2.7 4.5-5.4 5-6 5.7-6.5 11-13.2 10.7-13.8-.1-.4.2-.8.6-.8.4 0 3.4-3.2 6.6-7 3.8-4.7 5.5-7.6 5.2-8.8-.3-.9-2.7-4-5.3-6.9l-4.8-5.2-7.3 4.4c-4 2.5-7.7 4.5-8.2 4.5-.6 0-1 .4-1 .9s-1.2 1.4-2.7 2c-3.2 1.2-8.1 4.1-10.1 5.8-.7.7-2 1.3-2.8 1.3-.8 0-1.4.4-1.4.9s-1 1.3-2.2 1.7c-1.2.3-2.8 1.3-3.6 2-.7.8-2 1.4-2.8 1.4-.8 0-1.4.4-1.4.9s-.8 1.1-1.7 1.4c-1 .4-3.6 1.7-5.8 3.1-2.2 1.4-6.1 3.7-8.7 5.1-2.7 1.4-4.8 3.1-4.8 3.7 0 .6-.3.8-.6.5-.4-.4-1.9.2-3.4 1.3-1.6 1.1-3.3 2-3.9 2-.6 0-1.1.4-1.1 1 0 .5-.6 1-1.2 1-1.2 0-6.6 3.3-12.8 7.7-1.4 1-2.8 1.7-3.1 1.6-.4-.1-1.5.7-2.4 1.7-1 1.1-2.4 2-3.2 2-.7 0-1.3.5-1.3 1.1 0 .5-.4.8-.9.5-.5-.4-1.1-.2-1.3.3-.1.5-1.7 1.7-3.5 2.7-10.4 6-33.3 20.9-33.3 21.6 0 .5-.4.7-.9.3-.6-.3-1.4.3-2 1.2-.6 1-1.1 1.5-1.1 1.1 0-.6-8.9 4.8-11.5 7-.5.4-2.6 1.7-4.5 2.8-1.9 1-4.3 2.7-5.4 3.6-1.1 1-2.4 1.8-2.8 1.8-.5 0-3 1.6-5.5 3.5s-5.2 3.5-5.9 3.5c-.7 0-1.4.4-1.6.9-.1.5-4.6 3.6-9.8 7.1-5.2 3.4-9.7 6.5-10 6.8-.3.4-1.7 1.3-3.2 2.1-1.5.8-3.7 2.3-4.8 3.3-1.1 1-2 1.6-2 1.3 0-.3-3.2 1.8-7 4.5-3.9 2.8-7.4 5-7.8 5-.5 0-1.7.9-2.7 2-1 1.1-2.4 2-3.2 2-.7 0-1.3.4-1.3 1 0 .5-.7 1-1.5 1s-1.5.4-1.5 1c0 .5-.7 1-1.5 1s-1.5.4-1.5.8-1.5 1.6-3.2 2.7c-1.8 1-3.7 2.3-4.3 2.7-.5.5-7.5 5.3-15.5 10.8-8 5.4-15 10.4-15.7 10.9-.7.6-1.5 1.1-1.8 1.1-.3 0-1.1.5-1.8 1-3.1 2.6-10.6 8-11.2 8-.4 0-1.3.6-2 1.2-3 2.7-4.4 3.8-5 3.8-.8 0-11 7.4-11.3 8.2-.2.5-1 .8-1.8.8s-1.4.4-1.4 1c0 .5-.7 1-1.5 1s-1.5.4-1.5.8-1.5 1.6-3.2 2.7c-1.8 1-4.2 2.7-5.2 3.7-1.1 1-2.5 1.8-3.2 1.8-.6 0-1.5.7-1.8 1.6-.3.8-1 1.3-1.5 1-.5-.3-1.2.1-1.5 1-.3.8-1 1.3-1.5 1-.5-.4-1.1-.3-1.3.2-.5 1.2-8.5 7.2-9.6 7.2-.6 0-1.2.4-1.4.8-.3.7-4 3.4-21.7 15.9-3 2.1-5.9 4.3-6.5 4.8-.6.6-5.8 4.4-11.6 8.4-5.8 4.1-11 8-11.6 8.8-.6.7-1.4 1-1.7.6-.4-.3-.9.2-1.3 1.1-.3.9-1 1.6-1.5 1.6-.6 0-1.5.4-2.2 1-7.3 6-10.6 8.4-12.4 9.3-1.3.6-2.3 1.4-2.3 1.9 0 .4-.4.8-.9.8s-2 .9-3.3 2c-1.2 1.1-8.1 6.2-15.3 11.4-7.1 5.2-13.7 10-14.6 10.8-.8.7-3.7 2.9-6.5 4.7-2.7 1.9-5.1 3.7-5.4 4.1-.3.3-2.2 1.6-4.2 3-2.1 1.4-3.8 2.8-3.8 3.2 0 .5-.7.8-1.5.8s-1.5.3-1.5.7c0 .5-1.7 1.9-3.7 3.3-4 2.7-6.7 4.7-8.8 6.7-.8.7-1.8 1.3-2.3 1.3-.6 0-1.2.3-1.4.7-.5 1.3-8.6 7.3-9.7 7.3-.6 0-1.1.4-1.1.9s-1.5 1.9-3.3 3c-1.8 1.1-4.4 3-5.7 4.1-1.4 1.2-6.3 4.5-11 7.3s-8.8 5.5-9.1 6c-.3.5-.9.8-1.3.8-.3-.1-4.4 1.7-9.1 3.9-4.6 2.2-8.9 4-9.4 4-.6 0-1.1.5-1.1 1.1 0 .5-.4.8-.9.5-.5-.3-2.4.1-4.3.8-6.8 2.9-20.1 4-25.9 2.2-5.6-1.7-12-8.3-16.6-17.2-3.3-6.4-8.3-17.9-8.8-20.4-.1-.3-.7-3.1-1.4-6.2-.7-3.2-1.2-6-1.2-6.3 0-.2-.5-1.9-1-3.7-.6-1.8-1.2-4.7-1.4-6.3-.3-1.7-.7-4.6-1-6.5-.3-1.9-.7-5.5-.9-8-.3-2.5-1-9.2-1.6-15-.7-5.8-1.3-12.6-1.5-15.1-.1-2.5-.5-5.4-.8-6.5-.3-1-.9-5.7-1.2-10.4-.4-4.7-.9-10.1-1.1-12-.4-3.6-1.2-11.3-2-18.5-.5-5.3-1.4-13.9-1.9-19.5-.2-2.5-.5-4.6-.6-4.8-.1-.1-.2-1-.4-2-.1-.9-.4-2.4-.8-3.2-.3-.8-.5-2.2-.5-3 0-1.7-.7-5.7-1.7-11-.4-1.9-.7-4.3-.7-5.2 0-1-.3-2-.8-2.3-.5-.3-.7-1.6-.4-3 .2-1.3 0-2.6-.5-3-.6-.3-.8-1.2-.5-1.9.3-.8.1-1.7-.4-2-.6-.3-.8-1.5-.5-2.6.3-1.1.1-2-.3-2-.5 0-1-1-1-2.3-.1-1.2-.4-3.3-.7-4.7-1.4-5.7-2.9-11.6-3.4-13-.4-.8-.8-2.3-1-3.3-.1-.9-.5-2.5-.6-3.5-.2-.9-.7-2.6-1.1-3.7-.5-1.1-1.7-4.5-2.8-7.5-1.1-3-2.5-6.9-3.1-8.5-.7-1.7-1.1-3.3-.9-3.8.1-.4-.2-.7-.7-.7-.7 0-1.7-2.2-1.8-4-.1-2.8-16.5-31.5-21.1-37.1-5.7-6.8-9.1-10.7-11.2-12.9-4-4.1-13.7-12.3-14.4-12.2-.3.1-2-1.2-3.8-2.8-1.8-1.7-3.7-3-4.3-3-.6 0-2.1-.9-3.3-2-1.2-1.2-2.2-1.8-2.2-1.5 0 .8-8.4-3.6-9.1-4.7-.3-.5-1-.9-1.5-.9-.5.1-2.9-.5-5.4-1.3-17-5.5-26.4-6.6-44.5-5.3-10.9.8-21.4 3.1-29 6.6-12.6 5.7-19.6 9.6-28 15.6-10.6 7.5-23.7 19.3-22.9 20.7.3.4.1.8-.5.8-1.4 0-14.6 16-19.9 24-2.3 3.6-4.7 7-5.2 7.7-.6.7-1 1.6-1 2.1 0 .4-.8 1.7-1.7 2.8-1 1.1-3.4 5.1-5.3 8.9-1.9 3.9-3.8 7.2-4.1 7.5-.5.5-5.7 11.2-10.6 22-1.4 3-3.8 8.2-5.3 11.5-1.6 3.3-3.4 7.7-4.1 9.7-.7 2.1-1.7 3.8-2.1 3.8-.4 0-.8.8-.8 1.7 0 1-.7 3.1-1.5 4.6-.8 1.5-1.6 3.6-1.7 4.5-.2.9-.5 1.9-.8 2.2-1 .9-6.5 14.5-6.2 15.2.1.5-.3.8-.9.8-.5 0-.7.5-.3 1.2.4.7.3.8-.5.4-.6-.4-.9-1.2-.6-1.7.7-1 1.6-7.3 1.7-11.2 0-1.5.3-2.7.7-2.7.4 0 .7-1.5.7-3.3.1-1.7.4-5.2.8-7.7.6-4.5 1.5-10.7 2.1-14.5.1-1.1.6-4.5.9-7.5.4-3 .9-6.8 1.2-8.4.4-1.6.7-4 .9-5.5.1-1.4.6-6 1-10.1s.9-7.8 1.1-8.2c.2-.3.7-4.2 1-8.5.9-14 1.3-17.3 1.9-18.2.3-.5.1-1.2-.4-1.5-.5-.3-.5-2.4 0-4.8 1.1-6 1.1-31.6-.1-33.7-.6-1.1-.6-3 0-5 .5-1.8.5-3.3-.1-3.6-.5-.4-.9-2.5-.9-4.8-.1-2.3-.7-7.4-1.4-11.2-.8-3.9-1.2-7.3-.9-7.8.2-.4 0-.7-.4-.7-.5 0-1.5-2.7-2.2-6-.8-3.3-1.7-6-2.2-6-.7 0-1.9-2.7-2.3-5.4-.1-.6-1.2-2.6-2.4-4.4-1.3-1.8-2.1-3.2-1.7-3.2.3 0 .1-.6-.5-1.3-.5-.6-2.7-3.3-4.7-5.8-4.5-5.5-9.5-9.9-14.3-12.5-1.9-1-3.7-2.1-4-2.4-1-1-5.6-3.1-8-3.6-1.4-.3-2.9-.6-3.5-.7-.5-.2-1.4-.5-2-.8-1.5-.9-26.5-.7-26.5.2z"/></svg>